<mxfile host="app.diagrams.net" agent="Mozilla/5.0 (Windows NT 10.0; Win64; x64) AppleWebKit/537.36 (KHTML, like Gecko) Chrome/130.0.0.0 Safari/537.36 Edg/130.0.0.0" version="24.8.3">
  <diagram name="Page-1" id="I3fIqA70wA4WgPD9BAVW">
    <mxGraphModel dx="1892" dy="567" grid="1" gridSize="10" guides="1" tooltips="1" connect="1" arrows="1" fold="1" page="1" pageScale="1" pageWidth="850" pageHeight="1100" math="0" shadow="0">
      <root>
        <mxCell id="0" />
        <mxCell id="1" parent="0" />
        <mxCell id="QReUJoPPpVGPPjJZmCbR-1" value=":&lt;u&gt;Controller&lt;/u&gt;" style="html=1;whiteSpace=wrap;" vertex="1" parent="1">
          <mxGeometry x="60" y="50" width="110" height="50" as="geometry" />
        </mxCell>
        <mxCell id="QReUJoPPpVGPPjJZmCbR-2" value="enterCustomerDetails(username, password, age, phone_number)&amp;nbsp;" style="html=1;verticalAlign=bottom;endArrow=block;curved=0;rounded=0;" edge="1" parent="1">
          <mxGeometry width="80" relative="1" as="geometry">
            <mxPoint x="-230" y="150" as="sourcePoint" />
            <mxPoint x="110" y="150" as="targetPoint" />
          </mxGeometry>
        </mxCell>
        <mxCell id="QReUJoPPpVGPPjJZmCbR-3" value="" style="endArrow=none;dashed=1;html=1;rounded=0;entryX=0.5;entryY=1;entryDx=0;entryDy=0;" edge="1" parent="1">
          <mxGeometry width="50" height="50" relative="1" as="geometry">
            <mxPoint x="110" y="650" as="sourcePoint" />
            <mxPoint x="115" y="100" as="targetPoint" />
          </mxGeometry>
        </mxCell>
        <mxCell id="QReUJoPPpVGPPjJZmCbR-4" value=":&lt;u&gt;ValidationService&lt;/u&gt;" style="html=1;whiteSpace=wrap;" vertex="1" parent="1">
          <mxGeometry x="340" y="50" width="110" height="50" as="geometry" />
        </mxCell>
        <mxCell id="QReUJoPPpVGPPjJZmCbR-5" value="" style="endArrow=none;dashed=1;html=1;rounded=0;entryX=0.5;entryY=1;entryDx=0;entryDy=0;" edge="1" parent="1">
          <mxGeometry width="50" height="50" relative="1" as="geometry">
            <mxPoint x="395" y="650" as="sourcePoint" />
            <mxPoint x="395" y="100" as="targetPoint" />
          </mxGeometry>
        </mxCell>
        <mxCell id="QReUJoPPpVGPPjJZmCbR-6" value="validation(username, password, age, phone_number)" style="html=1;verticalAlign=bottom;endArrow=block;curved=0;rounded=0;" edge="1" parent="1">
          <mxGeometry width="80" relative="1" as="geometry">
            <mxPoint x="120" y="180" as="sourcePoint" />
            <mxPoint x="390" y="180" as="targetPoint" />
          </mxGeometry>
        </mxCell>
        <mxCell id="QReUJoPPpVGPPjJZmCbR-7" value="needForGuardianMessage" style="html=1;verticalAlign=bottom;endArrow=open;dashed=1;endSize=8;curved=0;rounded=0;" edge="1" parent="1">
          <mxGeometry relative="1" as="geometry">
            <mxPoint x="390" y="220" as="sourcePoint" />
            <mxPoint x="120" y="220" as="targetPoint" />
          </mxGeometry>
        </mxCell>
        <mxCell id="QReUJoPPpVGPPjJZmCbR-8" value=":&lt;u&gt;BookingDB&lt;/u&gt;" style="html=1;whiteSpace=wrap;" vertex="1" parent="1">
          <mxGeometry x="500" y="50" width="110" height="50" as="geometry" />
        </mxCell>
        <mxCell id="QReUJoPPpVGPPjJZmCbR-9" value="needForGuardianMessage" style="html=1;verticalAlign=bottom;endArrow=open;dashed=1;endSize=8;curved=0;rounded=0;" edge="1" parent="1">
          <mxGeometry relative="1" as="geometry">
            <mxPoint x="110" y="250" as="sourcePoint" />
            <mxPoint x="-50" y="250" as="targetPoint" />
          </mxGeometry>
        </mxCell>
        <mxCell id="QReUJoPPpVGPPjJZmCbR-10" value="enterGuardianDetails(username, password, age, phone_number)" style="html=1;verticalAlign=bottom;endArrow=block;curved=0;rounded=0;" edge="1" parent="1">
          <mxGeometry width="80" relative="1" as="geometry">
            <mxPoint x="-220" y="300" as="sourcePoint" />
            <mxPoint x="110" y="300" as="targetPoint" />
          </mxGeometry>
        </mxCell>
        <mxCell id="QReUJoPPpVGPPjJZmCbR-13" value="validation(username, password, age, phone_number)" style="html=1;verticalAlign=bottom;endArrow=block;curved=0;rounded=0;" edge="1" parent="1">
          <mxGeometry width="80" relative="1" as="geometry">
            <mxPoint x="120" y="330" as="sourcePoint" />
            <mxPoint x="390" y="330" as="targetPoint" />
          </mxGeometry>
        </mxCell>
        <mxCell id="QReUJoPPpVGPPjJZmCbR-14" value="confirmation" style="html=1;verticalAlign=bottom;endArrow=open;dashed=1;endSize=8;curved=0;rounded=0;" edge="1" parent="1">
          <mxGeometry relative="1" as="geometry">
            <mxPoint x="390" y="360" as="sourcePoint" />
            <mxPoint x="120" y="360" as="targetPoint" />
          </mxGeometry>
        </mxCell>
        <mxCell id="QReUJoPPpVGPPjJZmCbR-15" value="" style="endArrow=none;dashed=1;html=1;rounded=0;entryX=0.5;entryY=1;entryDx=0;entryDy=0;" edge="1" parent="1" target="QReUJoPPpVGPPjJZmCbR-8">
          <mxGeometry width="50" height="50" relative="1" as="geometry">
            <mxPoint x="555" y="660" as="sourcePoint" />
            <mxPoint x="570" y="140" as="targetPoint" />
          </mxGeometry>
        </mxCell>
        <mxCell id="QReUJoPPpVGPPjJZmCbR-16" value="createBooking()" style="html=1;verticalAlign=bottom;endArrow=block;curved=0;rounded=0;" edge="1" parent="1">
          <mxGeometry width="80" relative="1" as="geometry">
            <mxPoint x="120" y="410" as="sourcePoint" />
            <mxPoint x="550" y="410" as="targetPoint" />
          </mxGeometry>
        </mxCell>
        <mxCell id="QReUJoPPpVGPPjJZmCbR-17" value="b:&lt;u&gt;Booking&lt;/u&gt;" style="html=1;whiteSpace=wrap;" vertex="1" parent="1">
          <mxGeometry x="670" y="430" width="110" height="50" as="geometry" />
        </mxCell>
        <mxCell id="QReUJoPPpVGPPjJZmCbR-19" value="create()" style="html=1;verticalAlign=bottom;endArrow=block;curved=0;rounded=0;entryX=0;entryY=0.5;entryDx=0;entryDy=0;" edge="1" parent="1" target="QReUJoPPpVGPPjJZmCbR-17">
          <mxGeometry width="80" relative="1" as="geometry">
            <mxPoint x="560" y="454.5" as="sourcePoint" />
            <mxPoint x="620" y="454.5" as="targetPoint" />
          </mxGeometry>
        </mxCell>
        <mxCell id="QReUJoPPpVGPPjJZmCbR-20" value="" style="endArrow=none;dashed=1;html=1;rounded=0;entryX=0.5;entryY=1;entryDx=0;entryDy=0;" edge="1" parent="1" target="QReUJoPPpVGPPjJZmCbR-17">
          <mxGeometry width="50" height="50" relative="1" as="geometry">
            <mxPoint x="725" y="650" as="sourcePoint" />
            <mxPoint x="740" y="510" as="targetPoint" />
          </mxGeometry>
        </mxCell>
        <mxCell id="QReUJoPPpVGPPjJZmCbR-21" value="" style="html=1;whiteSpace=wrap;" vertex="1" parent="1">
          <mxGeometry x="810" y="40" width="110" height="50" as="geometry" />
        </mxCell>
        <mxCell id="QReUJoPPpVGPPjJZmCbR-22" value=":&lt;u&gt;Bookings&lt;/u&gt;" style="html=1;whiteSpace=wrap;" vertex="1" parent="1">
          <mxGeometry x="800" y="50" width="110" height="50" as="geometry" />
        </mxCell>
        <mxCell id="QReUJoPPpVGPPjJZmCbR-23" value="" style="endArrow=none;dashed=1;html=1;rounded=0;entryX=0.5;entryY=1;entryDx=0;entryDy=0;" edge="1" parent="1" target="QReUJoPPpVGPPjJZmCbR-22">
          <mxGeometry width="50" height="50" relative="1" as="geometry">
            <mxPoint x="855" y="674.7999877929688" as="sourcePoint" />
            <mxPoint x="870" y="120" as="targetPoint" />
          </mxGeometry>
        </mxCell>
        <mxCell id="QReUJoPPpVGPPjJZmCbR-24" value="add(b)" style="html=1;verticalAlign=bottom;endArrow=block;curved=0;rounded=0;" edge="1" parent="1">
          <mxGeometry width="80" relative="1" as="geometry">
            <mxPoint x="560" y="540" as="sourcePoint" />
            <mxPoint x="850" y="540" as="targetPoint" />
          </mxGeometry>
        </mxCell>
      </root>
    </mxGraphModel>
  </diagram>
</mxfile>
